<svg width="22" height="22" viewBox="0 0 22 22" fill="none" xmlns="http://www.w3.org/2000/svg">
<path fill-rule="evenodd" clip-rule="evenodd" d="M12.7919 12.2638C11.36 13.6957 9.03842 13.6957 7.60649 12.2638C6.17457 10.8319 6.17457 8.51027 7.60649 7.07835C9.03842 5.64643 11.36 5.64643 12.7919 7.07835C14.2239 8.51027 14.2239 10.8319 12.7919 12.2638ZM13.2323 13.6468C11.2721 15.1462 8.45651 14.9994 6.66368 13.2066C4.71106 11.254 4.71106 8.08816 6.66368 6.13554C8.61631 4.18292 11.7821 4.18292 13.7348 6.13554C15.5275 7.92829 15.6743 10.7437 14.1751 12.7039L17.7418 16.2706L16.799 17.2134L13.2323 13.6468Z" fill="white"/>
</svg>
